{
  "accessors": [
    {
      "bufferView": 0,
      "componentType": 5123,
      "count": 6408,
      "type": "SCALAR"
    },
    {
      "bufferView": 1,
      "componentType": 5126,
      "count": 2166,
      "max": [
        572.3363647460938,
        572.3363647460938,
        -0
      ],
      "min": [
        -572.3550415039062,
        -572.3550415039062,
        -370.75
      ],
      "type": "VEC3"
    },
    {
      "bufferView": 2,
      "componentType": 5126,
      "count": 2166,
      "type": "VEC3"
    },
    {
      "bufferView": 3,
      "componentType": 5126,
      "count": 2166,
      "type": "VEC2"
    },
    {
      "bufferView": 4,
      "componentType": 5126,
      "count": 2166,
      "type": "VEC2"
    },
    {
      "bufferView": 5,
      "componentType": 5123,
      "count": 79380,
      "type": "SCALAR"
    },
    {
      "bufferView": 6,
      "componentType": 5126,
      "count": 15195,
      "max": [
        482.96136474609375,
        457.7525634765625,
        -33
      ],
      "min": [
        -475.6623840332031,
        -479.73870849609375,
        -82.51658630371094
      ],
      "type": "VEC3"
    },
    {
      "bufferView": 7,
      "componentType": 5126,
      "count": 15195,
      "type": "VEC3"
    },
    {
      "bufferView": 8,
      "componentType": 5126,
      "count": 15195,
      "type": "VEC2"
    },
    {
      "bufferView": 9,
      "componentType": 5126,
      "count": 15195,
      "type": "VEC2"
    },
    {
      "bufferView": 10,
      "componentType": 5123,
      "count": 15648,
      "type": "SCALAR"
    },
    {
      "bufferView": 11,
      "componentType": 5126,
      "count": 3963,
      "max": [
        483.1058044433594,
        483.1047058105469,
        0.0000216066837310791
      ],
      "min": [
        -476.4317626953125,
        -483.1065673828125,
        -371.01043701171875
      ],
      "type": "VEC3"
    },
    {
      "bufferView": 12,
      "componentType": 5126,
      "count": 3963,
      "type": "VEC3"
    },
    {
      "bufferView": 13,
      "componentType": 5126,
      "count": 3963,
      "type": "VEC2"
    },
    {
      "bufferView": 14,
      "componentType": 5126,
      "count": 3963,
      "type": "VEC2"
    },
    {
      "bufferView": 15,
      "componentType": 5123,
      "count": 1410,
      "type": "SCALAR"
    },
    {
      "bufferView": 16,
      "componentType": 5126,
      "count": 520,
      "max": [
        1.0816702911142784E-7,
        374.01727294921875,
        -54.52000045776367
      ],
      "min": [
        -532.0593872070312,
        -531.9846801757812,
        -340.75
      ],
      "type": "VEC3"
    },
    {
      "bufferView": 17,
      "componentType": 5126,
      "count": 520,
      "type": "VEC3"
    },
    {
      "bufferView": 18,
      "componentType": 5126,
      "count": 520,
      "type": "VEC2"
    },
    {
      "bufferView": 19,
      "componentType": 5123,
      "count": 288,
      "type": "SCALAR"
    },
    {
      "bufferView": 20,
      "componentType": 5126,
      "count": 112,
      "max": [
        -3.0140907764434814,
        370.31414794921875,
        -57.62742614746094
      ],
      "min": [
        -526.79150390625,
        -526.7174682617188,
        -337.642578125
      ],
      "type": "VEC3"
    },
    {
      "bufferView": 21,
      "componentType": 5126,
      "count": 112,
      "type": "VEC3"
    },
    {
      "bufferView": 22,
      "componentType": 5126,
      "count": 112,
      "type": "VEC2"
    }
  ],
  "asset": {
    "minVersion": "2.0",
    "version": "2.0"
  },
  "bufferViews": [
    {
      "buffer": 0,
      "byteLength": 12816,
      "target": 34963
    },
    {
      "buffer": 0,
      "byteLength": 25992,
      "byteOffset": 12816,
      "target": 34962
    },
    {
      "buffer": 0,
      "byteLength": 25992,
      "byteOffset": 38808,
      "target": 34962
    },
    {
      "buffer": 0,
      "byteLength": 17328,
      "byteOffset": 64800,
      "target": 34962
    },
    {
      "buffer": 0,
      "byteLength": 17328,
      "byteOffset": 82128,
      "target": 34962
    },
    {
      "buffer": 1,
      "byteLength": 158760,
      "target": 34963
    },
    {
      "buffer": 1,
      "byteLength": 182340,
      "byteOffset": 158760,
      "target": 34962
    },
    {
      "buffer": 1,
      "byteLength": 182340,
      "byteOffset": 341100,
      "target": 34962
    },
    {
      "buffer": 1,
      "byteLength": 121560,
      "byteOffset": 523440,
      "target": 34962
    },
    {
      "buffer": 1,
      "byteLength": 121560,
      "byteOffset": 645000,
      "target": 34962
    },
    {
      "buffer": 2,
      "byteLength": 31296,
      "target": 34963
    },
    {
      "buffer": 2,
      "byteLength": 47556,
      "byteOffset": 31296,
      "target": 34962
    },
    {
      "buffer": 2,
      "byteLength": 47556,
      "byteOffset": 78852,
      "target": 34962
    },
    {
      "buffer": 2,
      "byteLength": 31704,
      "byteOffset": 126408,
      "target": 34962
    },
    {
      "buffer": 2,
      "byteLength": 31704,
      "byteOffset": 158112,
      "target": 34962
    },
    {
      "buffer": 3,
      "byteLength": 2820,
      "target": 34963
    },
    {
      "buffer": 3,
      "byteLength": 6240,
      "byteOffset": 2820,
      "target": 34962
    },
    {
      "buffer": 3,
      "byteLength": 6240,
      "byteOffset": 9060,
      "target": 34962
    },
    {
      "buffer": 3,
      "byteLength": 4160,
      "byteOffset": 15300,
      "target": 34962
    },
    {
      "buffer": 4,
      "byteLength": 576,
      "target": 34963
    },
    {
      "buffer": 4,
      "byteLength": 1344,
      "byteOffset": 576,
      "target": 34962
    },
    {
      "buffer": 4,
      "byteLength": 1344,
      "byteOffset": 1920,
      "target": 34962
    },
    {
      "buffer": 4,
      "byteLength": 896,
      "byteOffset": 3264,
      "target": 34962
    }
  ],
  "buffers": [
    {
      "byteLength": 99456,
      "uri": "data:application/gltf-buffer;base64,"
    },
    {
      "byteLength": 766560,
      "uri": "data:application/gltf-buffer;base64,"
    },
    {
      "byteLength": 189816,
      "uri": "data:application/gltf-buffer;base64,"
    },
    {
      "byteLength": 19460,
      "uri": "data:application/gltf-buffer;base64,"
    },
    {
      "byteLength": 4160,
      "uri": "data:application/gltf-buffer;base64,"
    }
  ],
  "images": [
    {
      "mimeType": "image/jpeg",
      "name": "cushion",
      "uri": "0d7689cb56a8a52d64a72e3f20adcafc.jpg"
    },
    {
      "mimeType": "image/jpeg",
      "name": "Room",
      "uri": "e11882df3a55d2e91ddb02d42de23504.jpg"
    },
    {
      "mimeType": "image/jpeg",
      "name": "Wood",
      "uri": "cb01f2c247931aa5307dc528c1626fb7.jpg"
    }
  ],
  "materials": [
    {
      "doubleSided": true,
      "name": "Cushion",
      "pbrMetallicRoughness": {
        "baseColorTexture": {
          "index": 0
        },
        "metallicFactor": 0,
        "roughnessFactor": 0.5527864098548889
      }
    },
    {
      "doubleSided": true,
      "name": "WhiteWalls",
      "pbrMetallicRoughness": {
        "baseColorTexture": {
          "index": 1
        },
        "metallicFactor": 0,
        "roughnessFactor": 0.5527864098548889
      }
    },
    {
      "doubleSided": true,
      "name": "Wood01",
      "pbrMetallicRoughness": {
        "baseColorTexture": {
          "index": 2
        },
        "metallicFactor": 0,
        "roughnessFactor": 0.5527864098548889
      }
    },
    {
      "doubleSided": true,
      "name": "WindowFrame",
      "pbrMetallicRoughness": {
        "metallicFactor": 0,
        "roughnessFactor": 0.5527864098548889
      }
    },
    {
      "alphaMode": "BLEND",
      "doubleSided": true,
      "extensions": {
        "KHR_materials_specular": {
          "specularFactor": 0.1599999964237213
        }
      },
      "name": "GlassClear",
      "pbrMetallicRoughness": {
        "baseColorFactor": [
          0.6000000238418579,
          0.6000000238418579,
          0.6000000238418579,
          0.050000011920928955
        ],
        "metallicFactor": 0,
        "roughnessFactor": 0
      }
    }
  ],
  "meshes": [
    {
      "name": "Mesh",
      "primitives": [
        {
          "attributes": {
            "NORMAL": 7,
            "POSITION": 6,
            "TEXCOORD_0": 8,
            "TEXCOORD_1": 9
          },
          "indices": 5,
          "material": 0
        }
      ]
    },
    {
      "name": "Mesh.003",
      "primitives": [
        {
          "attributes": {
            "NORMAL": 2,
            "POSITION": 1,
            "TEXCOORD_0": 3,
            "TEXCOORD_1": 4
          },
          "indices": 0,
          "material": 1
        }
      ]
    },
    {
      "name": "Mesh.002",
      "primitives": [
        {
          "attributes": {
            "NORMAL": 17,
            "POSITION": 16,
            "TEXCOORD_0": 18
          },
          "indices": 15,
          "material": 3
        },
        {
          "attributes": {
            "NORMAL": 21,
            "POSITION": 20,
            "TEXCOORD_0": 22
          },
          "indices": 19,
          "material": 4
        }
      ]
    },
    {
      "name": "Mesh.001",
      "primitives": [
        {
          "attributes": {
            "NORMAL": 12,
            "POSITION": 11,
            "TEXCOORD_0": 13,
            "TEXCOORD_1": 14
          },
          "indices": 10,
          "material": 2
        }
      ]
    }
  ],
  "nodes": [
    {
      "extras": {
        "meta_spatial": {
          "entity_id": "Windows"
        }
      },
      "mesh": 2,
      "name": "Windows",
      "rotation": [
        0.7071068286895752,
        0,
        0,
        0.7071068286895752
      ],
      "scale": [
        0.009999999776482582,
        0.009999999776482582,
        0.009999999776482582
      ]
    },
    {
      "extras": {
        "meta_spatial": {
          "entity_id": "Seating"
        }
      },
      "mesh": 0,
      "name": "Seating",
      "rotation": [
        0.7071068286895752,
        0,
        0,
        0.7071068286895752
      ],
      "scale": [
        0.009999999776482582,
        0.009999999776482582,
        0.009999999776482582
      ]
    },
    {
      "extras": {
        "meta_spatial": {
          "entity_id": "Room"
        }
      },
      "mesh": 1,
      "name": "Room",
      "rotation": [
        0.7071068286895752,
        0,
        0,
        0.7071068286895752
      ],
      "scale": [
        0.009999999776482582,
        0.009999999776482582,
        0.009999999776482582
      ]
    },
    {
      "extras": {
        "meta_spatial": {
          "entity_id": "Texture Group"
        }
      },
      "name": "Texture Group",
      "rotation": [
        0.7071068286895752,
        0,
        0,
        0.7071068286895752
      ],
      "scale": [
        0.009999999776482582,
        0.009999999776482582,
        0.009999999776482582
      ]
    },
    {
      "extras": {
        "meta_spatial": {
          "entity_id": "Wood"
        }
      },
      "mesh": 3,
      "name": "Wood",
      "rotation": [
        0.7071068286895752,
        0,
        0,
        0.7071068286895752
      ],
      "scale": [
        0.009999999776482582,
        0.009999999776482582,
        0.009999999776482582
      ]
    }
  ],
  "samplers": [
    {
      "magFilter": 9729,
      "minFilter": 9987,
      "name": "sampler0"
    }
  ],
  "scene": 0,
  "scenes": [
    {
      "nodes": [
        1,
        2,
        4,
        3,
        0
      ]
    }
  ],
  "textures": [
    {
      "name": "texture1",
      "sampler": 0,
      "source": 0
    },
    {
      "name": "texture3",
      "sampler": 0,
      "source": 1
    },
    {
      "name": "texture2",
      "sampler": 0,
      "source": 2
    }
  ]
}